  0
SECTION
  2
ENTITIES
  0
LWPOLYLINE
  8
0
  100
AcDbEntity
  100
AcDbPolyline
  90
21
  70
1
  10
0.000000
  20
0.000000
  10
0.000000
  20
150.000000
  10
280.000000
  20
150.000000
  10
280.000000
  20
100.000000
  10
280.000000
  20
100.000000
  10
270.198286
  20
99.518473
  10
260.490968
  20
98.078528
  10
250.971532
  20
95.694034
  10
241.731657
  20
92.387953
  10
232.860326
  20
88.192126
  10
224.442977
  20
83.146961
  10
216.560672
  20
77.301045
  10
209.289322
  20
70.710678
  10
202.698955
  20
63.439328
  10
196.853039
  20
55.557023
  10
191.807874
  20
47.139674
  10
187.612047
  20
38.268343
  10
184.305966
  20
29.028468
  10
181.921472
  20
19.509032
  10
180.481527
  20
9.801714
  10
180.000000
  20
0.000000
  0
ENDSEC
  0
EOF
