999
dxfrw 0.6.3
  0
SECTION
  2
HEADER
  9
$ACADVER
  1
AC1021
  9
$DWGCODEPAGE
  3
ANSI_1252
  9
$INSBASE
 10
0
 20
0
 30
0
  9
$EXTMIN
 10
11.20390220131417
 20
-413.4734094896463
 30
0
  9
$EXTMAX
 10
488.8334407494045
 20
-86.50453361042321
 30
0
  9
$LIMMIN
 10
0
 20
0
  9
$LIMMAX
 10
12
 20
9
  9
$ORTHOMODE
 70
    0
  9
$REGENMODE
 70
    1
  9
$FILLMODE
 70
    1
  9
$QTEXTMODE
 70
    0
  9
$MIRRTEXT
 70
    0
  9
$LTSCALE
 40
1
  9
$ATTMODE
 70
    1
  9
$TEXTSIZE
 40
0.2
  9
$TRACEWID
 40
0.05
  9
$TEXTSTYLE
  7
Standard
  9
$CLAYER
  8
0
  9
$CELTYPE
  6
ByLayer
  9
$CECOLOR
 62
  256
  9
$CELTSCALE
 40
1
  9
$DISPSILH
 70
    0
  9
$DIMSCALE
 40
1
  9
$DIMASZ
 40
0.18
  9
$DIMEXO
 40
0.0625
  9
$DIMDLI
 40
0.38
  9
$DIMRND
 40
0
  9
$DIMDLE
 40
0
  9
$DIMEXE
 40
0.18
  9
$DIMTP
 40
0
  9
$DIMTM
 40
0
  9
$DIMTXT
 40
0.18
  9
$DIMCEN
 40
0.09
  9
$DIMTSZ
 40
0
  9
$DIMTOL
 70
    0
  9
$DIMLIM
 70
    0
  9
$DIMTIH
 70
    1
  9
$DIMTOH
 70
    1
  9
$DIMSE1
 70
    0
  9
$DIMSE2
 70
    0
  9
$DIMTAD
 70
    0
  9
$DIMZIN
 70
    0
  9
$DIMBLK
  1

  9
$DIMASO
 70
    1
  9
$DIMSHO
 70
    1
  9
$DIMPOST
  1

  9
$DIMAPOST
  1

  9
$DIMALT
 70
    0
  9
$DIMALTD
 70
    2
  9
$DIMALTF
 40
25.4
  9
$DIMLFAC
 40
1
  9
$DIMTOFL
 70
    0
  9
$DIMTVP
 40
0
  9
$DIMTIX
 70
    0
  9
$DIMSOXD
 70
    0
  9
$DIMSAH
 70
    0
  9
$DIMBLK1
  1

  9
$DIMBLK2
  1

  9
$DIMSTYLE
  2
Standard
  9
$DIMCLRD
 70
    0
  9
$DIMCLRE
 70
    0
  9
$DIMCLRT
 70
    0
  9
$DIMTFAC
 40
1
  9
$DIMGAP
 40
0.09
  9
$DIMJUST
 70
    0
  9
$DIMSD1
 70
    0
  9
$DIMSD2
 70
    0
  9
$DIMTOLJ
 70
    1
  9
$DIMTZIN
 70
    0
  9
$DIMALTZ
 70
    0
  9
$DIMALTTZ
 70
    0
  9
$DIMUPT
 70
    0
  9
$DIMDEC
 70
    4
  9
$DIMTDEC
 70
    4
  9
$DIMALTU
 70
    2
  9
$DIMALTTD
 70
    2
  9
$DIMTXSTY
  7
standard
  9
$DIMAUNIT
 70
    0
  9
$DIMADEC
 70
    0
  9
$DIMALTRND
 40
0
  9
$DIMAZIN
 70
    0
  9
$DIMDSEP
 70
    0
  9
$DIMATFIT
 70
    3
  9
$DIMFRAC
 70
    0
  9
$DIMLDRBLK
  1

  9
$DIMLUNIT
 70
    2
  9
$DIMLWD
 70
   -2
  9
$DIMLWE
 70
   -2
  9
$DIMTMOVE
 70
    0
  9
$DIMFXL
 40
1
  9
$DIMFXLON
 70
    0
  9
$DIMJOGANG
 40
0.7853981633974483
  9
$DIMTFILL
 70
    0
  9
$DIMTFILLCLR
 70
    0
  9
$DIMARCSYM
 70
    0
  9
$DIMLTYPE
  6

  9
$DIMLTEX1
  6

  9
$DIMLTEX2
  6

  9
$LUNITS
 70
    2
  9
$LUPREC
 70
    4
  9
$SKETCHINC
 40
0.1
  9
$FILLETRAD
 40
0
  9
$AUNITS
 70
    0
  9
$AUPREC
 70
    0
  9
$MENU
  1
.
  9
$ELEVATION
 40
0
  9
$PELEVATION
 40
0
  9
$THICKNESS
 40
0
  9
$LIMCHECK
 70
    0
  9
$CHAMFERA
 40
0
  9
$CHAMFERB
 40
0
  9
$CHAMFERC
 40
0
  9
$CHAMFERD
 40
0
  9
$SKPOLY
 70
    0
  9
$USRTIMER
 70
    1
  9
$ANGBASE
 50
0
  9
$ANGDIR
 70
    0
  9
$PDMODE
 70
    0
  9
$PDSIZE
 40
0
  9
$PLINEWID
 40
0
  9
$SPLFRAME
 70
    0
  9
$SPLINETYPE
 70
    6
  9
$SPLINESEGS
 70
   16
  9
$HANDSEED
  5
20000
  9
$SURFTAB1
 70
    6
  9
$SURFTAB2
 70
    6
  9
$SURFTYPE
 70
    6
  9
$SURFU
 70
    6
  9
$SURFV
 70
    6
  9
$UCSBASE
  2

  9
$UCSNAME
  2

  9
$UCSORG
 10
0
 20
0
 30
0
  9
$UCSXDIR
 10
1
 20
0
 30
0
  9
$UCSYDIR
 10
0
 20
1
 30
0
  9
$UCSORTHOREF
  2

  9
$UCSORTHOVIEW
 70
    0
  9
$UCSORGTOP
 10
0
 20
0
 30
0
  9
$UCSORGBOTTOM
 10
0
 20
0
 30
0
  9
$UCSORGLEFT
 10
0
 20
0
 30
0
  9
$UCSORGRIGHT
 10
0
 20
0
 30
0
  9
$UCSORGFRONT
 10
0
 20
0
 30
0
  9
$UCSORGBACK
 10
0
 20
0
 30
0
  9
$PUCSBASE
  2

  9
$PUCSNAME
  2

  9
$PUCSORG
 10
0
 20
0
 30
0
  9
$PUCSXDIR
 10
1
 20
0
 30
0
  9
$PUCSYDIR
 10
0
 20
1
 30
0
  9
$PUCSORTHOREF
  2

  9
$PUCSORTHOVIEW
 70
    0
  9
$PUCSORGTOP
 10
0
 20
0
 30
0
  9
$PUCSORGBOTTOM
 10
0
 20
0
 30
0
  9
$PUCSORGLEFT
 10
0
 20
0
 30
0
  9
$PUCSORGRIGHT
 10
0
 20
0
 30
0
  9
$PUCSORGFRONT
 10
0
 20
0
 30
0
  9
$PUCSORGBACK
 10
0
 20
0
 30
0
  9
$USERI1
 70
    0
  9
$USERI2
 70
    0
  9
$USERI3
 70
    0
  9
$USERI4
 70
    0
  9
$USERI5
 70
    0
  9
$USERR1
 40
0
  9
$USERR2
 40
0
  9
$USERR3
 40
0
  9
$USERR4
 40
0
  9
$USERR5
 40
0
  9
$WORLDVIEW
 70
    1
  9
$SHADEDGE
 70
    3
  9
$SHADEDIF
 70
   70
  9
$TILEMODE
 70
    1
  9
$MAXACTVP
 70
   64
  9
$PINSBASE
 10
0
 20
0
 30
0
  9
$PLIMCHECK
 70
    0
  9
$PEXTMIN
 10
1e+20
 20
1e+20
 30
1e+20
  9
$PEXTMAX
 10
-1e+20
 20
-1e+20
 30
-1e+20
  9
$GRIDMODE
 70
    0
  9
$SNAPSTYLE
 70
    0
  9
$GRIDUNIT
 10
0
 20
0
  9
$PLIMMIN
 10
0
 20
0
  9
$PLIMMAX
 10
12
 20
9
  9
$UNITMODE
 70
    0
  9
$VISRETAIN
 70
    1
  9
$PLINEGEN
 70
    0
  9
$PSLTSCALE
 70
    1
  9
$TREEDEPTH
 70
 3020
  9
$CMLSTYLE
  2
Standard
  9
$CMLJUST
 70
    0
  9
$CMLSCALE
 40
1
  9
$PROXYGRAPHICS
 70
    1
  9
$MEASUREMENT
 70
    1
  9
$CELWEIGHT
370
   -1
  9
$ENDCAPS
280
    0
  9
$JOINSTYLE
280
    0
  9
$LWDISPLAY
290
    1
  9
$INSUNITS
 70
    4
  9
$HYPERLINKBASE
  1

  9
$STYLESHEET
  1

  9
$XEDIT
290
    1
  9
$CEPSNTYPE
380
    0
  9
$PSTYLEMODE
290
    1
  9
$EXTNAMES
290
    1
  9
$PSVPSCALE
 40
0
  9
$OLESTARTUP
290
    0
  9
$SORTENTS
280
  127
  9
$INDEXCTL
280
    0
  9
$HIDETEXT
280
    1
  9
$XCLIPFRAME
290
    2
  9
$HALOGAP
280
    0
  9
$OBSCOLOR
 70
  257
  9
$OBSLTYPE
280
    0
  9
$INTERSECTIONDISPLAY
280
    0
  9
$INTERSECTIONCOLOR
 70
  257
  9
$DIMASSOC
280
    2
  9
$PROJECTNAME
  1

  9
$CAMERADISPLAY
290
    0
  9
$LENSLENGTH
 40
50
  9
$CAMERAHEIGHT
 40
0
  9
$STEPSPERSEC
 40
2
  9
$STEPSIZE
 40
6
  9
$3DDWFPREC
 40
2
  9
$PSOLWIDTH
 40
0.25
  9
$PSOLHEIGHT
 40
4
  9
$LOFTANG1
 40
1.570796326794896
  9
$LOFTANG2
 40
1.570796326794896
  9
$LOFTMAG1
 40
0
  9
$LOFTMAG2
 40
0
  9
$LOFTPARAM
 70
    7
  9
$LOFTNORMALS
280
    1
  9
$LATITUDE
 40
37.795
  9
$LONGITUDE
 40
-122.394
  9
$NORTHDIRECTION
 40
0
  9
$TIMEZONE
 70
-8000
  9
$LIGHTGLYPHDISPLAY
280
    1
  9
$TILEMODELIGHTSYNCH
280
    1
  9
$SOLIDHIST
280
    0
  9
$SHOWHIST
280
    1
  9
$DWFFRAME
280
    2
  9
$DGNFRAME
280
    0
  9
$REALWORLDSCALE
290
    1
  9
$INTERFERECOLOR
 62
    1
  9
$CSHADOW
280
    0
  9
$SHADOWPLANELOCATION
 40
0
  0
ENDSEC
  0
SECTION
  2
CLASSES
  0
ENDSEC
  0
SECTION
  2
TABLES
  0
TABLE
  2
VPORT
  5
8
330
0
100
AcDbSymbolTable
 70
    1
  0
VPORT
  5
31
330
2
100
AcDbSymbolTableRecord
100
AcDbViewportTableRecord
  2
*ACTIVE
 70
    0
 10
0
 20
0
 11
1
 21
1
 12
578.7153938598708
 22
94.99431951047555
 13
0
 23
0
 14
10
 24
10
 15
10
 25
10
 16
0
 26
0
 36
1
 17
0
 27
0
 37
0
 40
969.1087157077461
 41
1.666380051590714
 42
50
 43
0
 44
0
 50
0
 51
0
 71
    0
 72
  100
 73
    1
 74
    3
 75
    0
 76
    0
 77
    0
 78
    0
281
    0
 65
    1
110
0
120
0
130
0
111
1
121
0
131
0
112
0
122
1
132
0
 79
    0
146
0
348
10020
 60
    7
 61
    5
292
1
282
    1
141
0
142
0
 63
  250
421
3358443
  0
ENDTAB
  0
TABLE
  2
LTYPE
  5
5
330
0
100
AcDbSymbolTable
 70
    4
  0
LTYPE
  5
14
330
5
100
AcDbSymbolTableRecord
100
AcDbLinetypeTableRecord
  2
ByBlock
 70
    0
  3

 72
   65
 73
    0
 40
0
  0
LTYPE
  5
15
330
5
100
AcDbSymbolTableRecord
100
AcDbLinetypeTableRecord
  2
ByLayer
 70
    0
  3

 72
   65
 73
    0
 40
0
  0
LTYPE
  5
16
330
5
100
AcDbSymbolTableRecord
100
AcDbLinetypeTableRecord
  2
Continuous
 70
    0
  3
Solid line
 72
   65
 73
    0
 40
0
  0
LTYPE
  5
32
330
5
100
AcDbSymbolTableRecord
100
AcDbLinetypeTableRecord
  2
DOT
 70
    0
  3
Dot . . . . . . . . . . . . . . . . . . . . . .
 72
   65
 73
    2
 40
6.35
 49
0
 74
    0
 49
-6.35
 74
    0
  0
LTYPE
  5
33
330
5
100
AcDbSymbolTableRecord
100
AcDbLinetypeTableRecord
  2
DOTTINY
 70
    0
  3
Dot (.15x) .....................................
 72
   65
 73
    2
 40
0.9525
 49
0
 74
    0
 49
-0.9525
 74
    0
  0
LTYPE
  5
34
330
5
100
AcDbSymbolTableRecord
100
AcDbLinetypeTableRecord
  2
DOT2
 70
    0
  3
Dot (.5x) .....................................
 72
   65
 73
    2
 40
3.175
 49
0
 74
    0
 49
-3.175
 74
    0
  0
LTYPE
  5
35
330
5
100
AcDbSymbolTableRecord
100
AcDbLinetypeTableRecord
  2
DOTX2
 70
    0
  3
Dot (2x) .  .  .  .  .  .  .  .  .  .  .  .  .
 72
   65
 73
    2
 40
12.7
 49
0
 74
    0
 49
-12.7
 74
    0
  0
LTYPE
  5
36
330
5
100
AcDbSymbolTableRecord
100
AcDbLinetypeTableRecord
  2
DASHED
 70
    0
  3
Dashed _ _ _ _ _ _ _ _ _ _ _ _ _ _ _ _ _
 72
   65
 73
    2
 40
19.05
 49
12.7
 74
    0
 49
-6.35
 74
    0
  0
LTYPE
  5
37
330
5
100
AcDbSymbolTableRecord
100
AcDbLinetypeTableRecord
  2
DASHEDTINY
 70
    0
  3
Dashed (.15x) _ _ _ _ _ _ _ _ _ _ _ _ _ _ _ _ _
 72
   65
 73
    2
 40
2.8575
 49
1.905
 74
    0
 49
-0.9525
 74
    0
  0
LTYPE
  5
38
330
5
100
AcDbSymbolTableRecord
100
AcDbLinetypeTableRecord
  2
DASHED2
 70
    0
  3
Dashed (.5x) _ _ _ _ _ _ _ _ _ _ _ _ _ _ _ _ _
 72
   65
 73
    2
 40
9.524999999999999
 49
6.35
 74
    0
 49
-3.175
 74
    0
  0
LTYPE
  5
39
330
5
100
AcDbSymbolTableRecord
100
AcDbLinetypeTableRecord
  2
DASHEDX2
 70
    0
  3
Dashed (2x) ____  ____  ____  ____  ____  ___
 72
   65
 73
    2
 40
38.09999999999999
 49
25.4
 74
    0
 49
-12.7
 74
    0
  0
LTYPE
  5
3A
330
5
100
AcDbSymbolTableRecord
100
AcDbLinetypeTableRecord
  2
DASHDOT
 70
    0
  3
Dash dot __ . __ . __ . __ . __ . __ . __ . __
 72
   65
 73
    4
 40
25.4
 49
12.7
 74
    0
 49
-6.35
 74
    0
 49
0
 74
    0
 49
-6.35
 74
    0
  0
LTYPE
  5
3B
330
5
100
AcDbSymbolTableRecord
100
AcDbLinetypeTableRecord
  2
DASHDOTTINY
 70
    0
  3
Dash dot (.15x) _._._._._._._._._._._._._._._.
 72
   65
 73
    4
 40
3.81
 49
1.905
 74
    0
 49
-0.9525
 74
    0
 49
0
 74
    0
 49
-0.9525
 74
    0
  0
LTYPE
  5
3C
330
5
100
AcDbSymbolTableRecord
100
AcDbLinetypeTableRecord
  2
DASHDOT2
 70
    0
  3
Dash dot (.5x) _._._._._._._._._._._._._._._.
 72
   65
 73
    4
 40
12.7
 49
6.35
 74
    0
 49
-3.175
 74
    0
 49
0
 74
    0
 49
-3.175
 74
    0
  0
LTYPE
  5
3D
330
5
100
AcDbSymbolTableRecord
100
AcDbLinetypeTableRecord
  2
DASHDOTX2
 70
    0
  3
Dash dot (2x) ____  .  ____  .  ____  .  ___
 72
   65
 73
    4
 40
50.8
 49
25.4
 74
    0
 49
-12.7
 74
    0
 49
0
 74
    0
 49
-12.7
 74
    0
  0
LTYPE
  5
3E
330
5
100
AcDbSymbolTableRecord
100
AcDbLinetypeTableRecord
  2
DIVIDE
 70
    0
  3
Divide ____ . . ____ . . ____ . . ____ . . ____
 72
   65
 73
    6
 40
31.75
 49
12.7
 74
    0
 49
-6.35
 74
    0
 49
0
 74
    0
 49
-6.35
 74
    0
 49
0
 74
    0
 49
-6.35
 74
    0
  0
LTYPE
  5
3F
330
5
100
AcDbSymbolTableRecord
100
AcDbLinetypeTableRecord
  2
DIVIDETINY
 70
    0
  3
Divide (.15x) __..__..__..__..__..__..__..__.._
 72
   65
 73
    6
 40
4.7625
 49
1.905
 74
    0
 49
-0.9525
 74
    0
 49
0
 74
    0
 49
-0.9525
 74
    0
 49
0
 74
    0
 49
-0.9525
 74
    0
  0
LTYPE
  5
40
330
5
100
AcDbSymbolTableRecord
100
AcDbLinetypeTableRecord
  2
DIVIDE2
 70
    0
  3
Divide (.5x) __..__..__..__..__..__..__..__.._
 72
   65
 73
    6
 40
15.875
 49
6.35
 74
    0
 49
-3.175
 74
    0
 49
0
 74
    0
 49
-3.175
 74
    0
 49
0
 74
    0
 49
-3.175
 74
    0
  0
LTYPE
  5
41
330
5
100
AcDbSymbolTableRecord
100
AcDbLinetypeTableRecord
  2
DIVIDEX2
 70
    0
  3
Divide (2x) ________  .  .  ________  .  .  _
 72
   65
 73
    6
 40
63.5
 49
25.4
 74
    0
 49
-12.7
 74
    0
 49
0
 74
    0
 49
-12.7
 74
    0
 49
0
 74
    0
 49
-12.7
 74
    0
  0
LTYPE
  5
42
330
5
100
AcDbSymbolTableRecord
100
AcDbLinetypeTableRecord
  2
BORDER
 70
    0
  3
Border __ __ . __ __ . __ __ . __ __ . __ __ .
 72
   65
 73
    6
 40
44.45
 49
12.7
 74
    0
 49
-6.35
 74
    0
 49
12.7
 74
    0
 49
-6.35
 74
    0
 49
0
 74
    0
 49
-6.35
 74
    0
  0
LTYPE
  5
43
330
5
100
AcDbSymbolTableRecord
100
AcDbLinetypeTableRecord
  2
BORDERTINY
 70
    0
  3
Border (.15x) __.__.__.__.__.__.__.__.__.__.__.
 72
   65
 73
    6
 40
6.6675
 49
1.905
 74
    0
 49
-0.9525
 74
    0
 49
1.905
 74
    0
 49
-0.9525
 74
    0
 49
0
 74
    0
 49
-0.9525
 74
    0
  0
LTYPE
  5
44
330
5
100
AcDbSymbolTableRecord
100
AcDbLinetypeTableRecord
  2
BORDER2
 70
    0
  3
Border (.5x) __.__.__.__.__.__.__.__.__.__.__.
 72
   65
 73
    6
 40
22.225
 49
6.35
 74
    0
 49
-3.175
 74
    0
 49
6.35
 74
    0
 49
-3.175
 74
    0
 49
0
 74
    0
 49
-3.175
 74
    0
  0
LTYPE
  5
45
330
5
100
AcDbSymbolTableRecord
100
AcDbLinetypeTableRecord
  2
BORDERX2
 70
    0
  3
Border (2x) ____  ____  .  ____  ____  .  ___
 72
   65
 73
    6
 40
88.89999999999999
 49
25.4
 74
    0
 49
-12.7
 74
    0
 49
25.4
 74
    0
 49
-12.7
 74
    0
 49
0
 74
    0
 49
-12.7
 74
    0
  0
LTYPE
  5
46
330
5
100
AcDbSymbolTableRecord
100
AcDbLinetypeTableRecord
  2
CENTER
 70
    0
  3
Center ____ _ ____ _ ____ _ ____ _ ____ _ ____
 72
   65
 73
    4
 40
50.8
 49
31.75
 74
    0
 49
-6.35
 74
    0
 49
6.35
 74
    0
 49
-6.35
 74
    0
  0
LTYPE
  5
47
330
5
100
AcDbSymbolTableRecord
100
AcDbLinetypeTableRecord
  2
CENTERTINY
 70
    0
  3
Center (.15x) ___ _ ___ _ ___ _ ___ _ ___ _ ___
 72
   65
 73
    4
 40
7.619999999999999
 49
4.7625
 74
    0
 49
-0.9525
 74
    0
 49
0.9525
 74
    0
 49
-0.9525
 74
    0
  0
LTYPE
  5
48
330
5
100
AcDbSymbolTableRecord
100
AcDbLinetypeTableRecord
  2
CENTER2
 70
    0
  3
Center (.5x) ___ _ ___ _ ___ _ ___ _ ___ _ ___
 72
   65
 73
    4
 40
28.575
 49
19.05
 74
    0
 49
-3.175
 74
    0
 49
3.175
 74
    0
 49
-3.175
 74
    0
  0
LTYPE
  5
49
330
5
100
AcDbSymbolTableRecord
100
AcDbLinetypeTableRecord
  2
CENTERX2
 70
    0
  3
Center (2x) ________  __  ________  __  _____
 72
   65
 73
    4
 40
101.6
 49
63.5
 74
    0
 49
-12.7
 74
    0
 49
12.7
 74
    0
 49
-12.7
 74
    0
  0
ENDTAB
  0
TABLE
  2
LAYER
  5
2
330
0
100
AcDbSymbolTable
 70
    1
  0
LAYER
  5
10
330
2
100
AcDbSymbolTableRecord
100
AcDbLayerTableRecord
  2
0
 70
    0
 62
    7
  6
CONTINUOUS
370
   -3
390
F
  0
LAYER
  5
4A
330
2
100
AcDbSymbolTableRecord
100
AcDbLayerTableRecord
  2
Calque 1
 70
    0
 62
    7
  6
CONTINUOUS
370
    0
390
F
  0
ENDTAB
  0
TABLE
  2
STYLE
  5
3
330
0
100
AcDbSymbolTable
 70
    3
  0
STYLE
  5
4B
330
2
100
AcDbSymbolTableRecord
100
AcDbTextStyleTableRecord
  2
Standard
 70
    0
 40
0
 41
1
 50
0
 71
    0
 42
1
  3
txt
  4

  0
ENDTAB
  0
TABLE
  2
VIEW
  5
6
330
0
100
AcDbSymbolTable
 70
    0
  0
ENDTAB
  0
TABLE
  2
UCS
  5
7
330
0
100
AcDbSymbolTable
 70
    0
  0
ENDTAB
  0
TABLE
  2
APPID
  5
9
330
0
100
AcDbSymbolTable
 70
    1
  0
APPID
  5
12
330
9
100
AcDbSymbolTableRecord
100
AcDbRegAppTableRecord
  2
ACAD
 70
    0
  0
APPID
  5
4C
330
9
100
AcDbSymbolTableRecord
100
AcDbRegAppTableRecord
  2
LibreCad
 70
    0
  0
ENDTAB
  0
TABLE
  2
DIMSTYLE
  5
A
330
0
100
AcDbSymbolTable
 70
    1
100
AcDbDimStyleTable
 71
    1
  0
DIMSTYLE
105
4D
330
A
100
AcDbSymbolTableRecord
100
AcDbDimStyleTableRecord
  2
Standard
 70
    0
 40
1
 41
0.18
 42
0.0625
 43
0.38
 44
0.18
 45
0
 46
0
 47
0
 48
0
 49
1
140
0.18
141
0.09
142
0
143
25.4
144
1
145
0
146
1
147
0.09
148
0
 71
    0
 72
    0
 73
    1
 74
    1
 75
    0
 76
    0
 77
    0
 78
    0
 79
    0
170
    0
171
    2
172
    0
173
    0
174
    0
175
    0
176
    0
177
    0
178
    0
179
    0
271
    4
272
    4
273
    2
274
    2
275
    0
276
    0
277
    2
278
    0
279
    0
280
    0
281
    0
282
    0
283
    1
284
    0
285
    0
286
    0
288
    0
289
    3
340
4B
  0
ENDTAB
  0
TABLE
  2
BLOCK_RECORD
  5
1
330
0
100
AcDbSymbolTable
 70
    2
  0
BLOCK_RECORD
  5
1F
330
1
100
AcDbSymbolTableRecord
100
AcDbBlockTableRecord
  2
*Model_Space
 70
    0
280
    1
281
    0
  0
BLOCK_RECORD
  5
1E
330
1
100
AcDbSymbolTableRecord
100
AcDbBlockTableRecord
  2
*Paper_Space
 70
    0
280
    1
281
    0
  0
ENDTAB
  0
ENDSEC
  0
SECTION
  2
BLOCKS
  0
BLOCK
  5
20
330
1F
100
AcDbEntity
  8
0
100
AcDbBlockBegin
  2
*Model_Space
 70
    0
 10
0
 20
0
 30
0
  3
*Model_Space
  1

  0
ENDBLK
  5
21
330
1F
100
AcDbEntity
  8
0
100
AcDbBlockEnd
  0
BLOCK
  5
1C
330
1B
100
AcDbEntity
  8
0
100
AcDbBlockBegin
  2
*Paper_Space
 70
    0
 10
0
 20
0
 30
0
  3
*Paper_Space
  1

  0
ENDBLK
  5
1D
330
1F
100
AcDbEntity
  8
0
100
AcDbBlockEnd
  0
ENDSEC
  0
SECTION
  2
ENTITIES
  0
LWPOLYLINE
  5
4E
100
AcDbEntity
  8
0
  6
ByLayer
 62
  256
370
   -1
100
AcDbPolyline
 90
  207
 70
    1
 43
0
 10
195.0701492293149
 20
-280.8081709940637
 10
193.4982823840868
 20
-280.7343122026823
 10
191.9395271390225
 20
-280.612115695937
 10
190.3946213598647
 20
-280.4423190474654
 10
188.8643029123557
 20
-280.2256598309053
 10
187.349309662238
 20
-279.9628756198942
 10
185.8503794752542
 20
-279.6547039880699
 10
184.3682502171466
 20
-279.3018825090697
 10
182.9036597536577
 20
-278.9051487565314
 10
181.4573459505301
 20
-278.4652403040928
 10
180.0300466735063
 20
-277.9828947253913
 10
178.6224997883285
 20
-277.4588495940645
 10
177.2354431607395
 20
-276.8938424837503
 10
175.8696146564816
 20
-276.2886109680861
 10
174.5257521412971
 20
-275.6438926207096
 10
173.2045934809289
 20
-274.9604250152583
 10
171.9068765411191
 20
-274.2389457253701
 10
170.6333391876104
 20
-273.4801923246824
 10
169.3847192861452
 20
-272.684902386833
 10
168.1617547024659
 20
-271.8538134854593
 10
166.965183302315
 20
-270.9876631941992
 10
165.7957429514351
 20
-270.0871890866901
 10
164.6541715155685
 20
-269.1531287365697
 10
163.5412068604578
 20
-268.1862197174758
 10
162.4575868518455
 20
-267.1871996030457
 10
161.4040493554739
 20
-266.1568059669174
 10
160.3813322370856
 20
-265.0957763827282
 10
159.390173362423
 20
-264.0048484241158
 10
158.4313105972287
 20
-262.884759664718
 10
157.505481807245
 20
-261.7362476781724
 10
156.6134248582146
 20
-260.5600500381165
 10
155.7558776158797
 20
-259.3569043181879
 10
154.933577945983
 20
-258.1275480920244
 10
154.1472637142669
 20
-256.8727189332635
 10
153.3976727864738
 20
-255.5931544155428
 10
152.6855430283463
 20
-254.2895921125001
 10
152.0116123056268
 20
-252.9627695977729
 10
151.3766184840577
 20
-251.6134244449989
 10
150.7812994293816
 20
-250.2422942278156
 10
150.226393007341
 20
-248.8501165198608
 10
149.7126370836782
 20
-247.4376288947719
 10
149.2407695241358
 20
-246.0055689261868
 10
148.8115281944563
 20
-244.554674187743
 10
148.4256509603821
 20
-243.0856822530781
 10
148.0838756876556
 20
-241.5993306958297
 10
147.7869402420195
 20
-240.0963570896356
 10
147.5355824892161
 20
-238.5774990081333
 10
147.3305402949879
 20
-237.0434940249604
 10
147.1725515250774
 20
-235.4950797137546
 10
147.062354045227
 20
-233.9329936481535
 10
147.0006857211793
 20
-232.3579734017947
 10
146.988280575626
 20
-230.7714840270632
 10
147.0254076221189
 20
-229.1902677061055
 10
147.1114327572857
 20
-227.621609586005
 10
147.245618115384
 20
-226.066247532504
 10
147.4272258306712
 20
-224.524919411345
 10
147.6555180374048
 20
-222.9983630882705
 10
147.9297568698423
 20
-221.4873164290229
 10
148.2492044622414
 20
-219.9925172993447
 10
148.6131229488596
 20
-218.5147035649785
 10
149.0207744639542
 20
-217.0546130916666
 10
149.4714211417831
 20
-215.6129837451516
 10
149.9643251166034
 20
-214.1905533911759
 10
150.4987485226729
 20
-212.788059895482
 10
151.0739534942491
 20
-211.4062411238123
 10
151.6892021655895
 20
-210.0458349419094
 10
152.3437566709516
 20
-208.7075792155156
 10
153.0368791445929
 20
-207.3922118103736
 10
153.7678317207711
 20
-206.1004705922258
 10
154.5358765337435
 20
-204.8330934268145
 10
155.3402757177677
 20
-203.5908181798824
 10
156.1802914071013
 20
-202.3743827171719
 10
157.0551857360018
 20
-201.1845249044254
 10
157.9642208387266
 20
-200.0219826073854
 10
158.9066588495334
 20
-198.8874936917945
 10
159.8817619026797
 20
-197.781796023395
 10
160.888792132423
 20
-196.7056274679295
 10
161.9270116730207
 20
-195.6597258911403
 10
162.9956826587305
 20
-194.6448291587701
 10
164.0940672238099
 20
-193.6616751365612
 10
165.2214275025163
 20
-192.7110016902562
 10
166.3770256291074
 20
-191.7935466855975
 10
167.5601237378406
 20
-190.9100479883276
 10
168.7699839629735
 20
-190.0612434641889
 10
170.0058684387635
 20
-189.247870978924
 10
171.2670392994683
 20
-188.4706683982753
 10
172.5527586793454
 20
-187.7303735879852
 10
173.8622887126522
 20
-187.0277244137963
 10
175.1948915336464
 20
-186.3634587414511
 10
176.5498292765854
 20
-185.7383144366919
 10
177.9263640757267
 20
-185.1530293652613
 10
179.3237580653279
 20
-184.6083413929018
 10
180.7412733796465
 20
-184.1049883853558
 10
182.1781721529401
 20
-183.6437082083658
 10
183.6337165194661
 20
-183.2252387276742
 10
185.1071686134821
 20
-182.8503178090236
 10
186.5977905692457
 20
-182.5196833181564
 10
188.1048445210143
 20
-182.2340731208151
 10
189.6275926030454
 20
-181.994225082742
 10
191.1652969495966
 20
-181.80087706968
 10
192.7172196949255
 20
-181.6547669473711
 10
194.2826229732895
 20
-181.5566325815581
 10
195.8607689189462
 20
-181.5072118379833
 10
197.4479138563385
 20
-181.5072118379834
 10
199.0258717123389
 20
-181.5566325815581
 10
200.5910942401808
 20
-181.6547669473712
 10
202.1428434280693
 20
-181.80087706968
 10
203.6803812642096
 20
-181.9942250827421
 10
205.2029697368068
 20
-182.2340731208151
 10
206.7098708340659
 20
-182.5196833181565
 10
208.2003465441921
 20
-182.8503178090237
 10
209.6736588553904
 20
-183.2252387276743
 10
211.129069755866
 20
-183.6437082083659
 10
212.5658412338239
 20
-184.1049883853559
 10
213.9832352774694
 20
-184.608341392902
 10
215.3805138750074
 20
-185.1530293652615
 10
216.7569390146432
 20
-185.7383144366921
 10
218.1117726845816
 20
-186.3634587414513
 10
219.444276873028
 20
-187.0277244137966
 10
220.7537135681875
 20
-187.7303735879855
 10
222.039344758265
 20
-188.4706683982755
 10
223.3004324314657
 20
-189.2478709789243
 10
224.5362385759947
 20
-190.0612434641892
 10
225.7460251800572
 20
-190.9100479883279
 10
226.9290542318581
 20
-191.7935466855978
 10
228.0845877196027
 20
-192.7110016902566
 10
229.211887631496
 20
-193.6616751365616
 10
230.3102159557432
 20
-194.6448291587704
 10
231.3788346805493
 20
-195.6597258911407
 10
232.4170057941195
 20
-196.7056274679298
 10
233.4239912846587
 20
-197.7817960233954
 10
234.3990531403722
 20
-198.8874936917949
 10
235.3414533494651
 20
-200.0219826073858
 10
236.2504539001425
 20
-201.1845249044258
 10
237.1253167806094
 20
-202.3743827171723
 10
237.965303979071
 20
-203.5908181798829
 10
238.7696774837324
 20
-204.833093426815
 10
239.5376992827986
 20
-206.1004705922263
 10
240.2686313644749
 20
-207.3922118103741
 10
240.9617357169662
 20
-208.7075792155161
 10
241.6162743284777
 20
-210.0458349419098
 10
242.2315091872146
 20
-211.4062411238127
 10
242.8067022813818
 20
-212.7880598954825
 10
243.3411155991845
 20
-214.1905533911764
 10
243.8340111288279
 20
-215.6129837451521
 10
244.2846508585169
 20
-217.0546130916671
 10
244.6922967764567
 20
-218.514703564979
 10
245.0562108708525
 20
-219.9925172993453
 10
245.3756551299093
 20
-221.4873164290234
 10
245.6498915418323
 20
-222.998363088271
 10
245.8781820948265
 20
-224.5249194113455
 10
246.059788777097
 20
-226.0662475325045
 10
246.193973576849
 20
-227.6216095860056
 10
246.2799984822875
 20
-229.1902677061061
 10
246.3171254816177
 20
-230.7714840270637
 10
246.3047203459533
 20
-232.3579734017953
 10
246.2430521420946
 20
-233.932993648154
 10
246.1328550380249
 20
-235.4950797137552
 10
245.9748670455392
 20
-237.043494024961
 10
245.7698261764325
 20
-238.5774990081339
 10
245.5184704424995
 20
-240.0963570896362
 10
245.2215378555352
 20
-241.5993306958304
 10
244.8797664273345
 20
-243.0856822530787
 10
244.4938941696923
 20
-244.5546741877436
 10
244.0646590944035
 20
-246.0055689261874
 10
243.5927992132629
 20
-247.4376288947725
 10
243.0790525380654
 20
-248.8501165198614
 10
242.524157080606
 20
-250.2422942278162
 10
241.9288508526797
 20
-251.6134244449994
 10
241.2938718660811
 20
-252.9627695977735
 10
240.6199581326053
 20
-254.2895921125007
 10
239.9078476640472
 20
-255.5931544155434
 10
239.1582784722015
 20
-256.872718933264
 10
238.3719885688633
 20
-258.1275480920249
 10
237.5497159658274
 20
-259.3569043181884
 10
236.6921986748887
 20
-260.560050038117
 10
235.8001747078422
 20
-261.736247678173
 10
234.8743820764827
 20
-262.8847596647186
 10
233.9155587926051
 20
-264.0048484241165
 10
232.9244428680043
 20
-265.0957763827287
 10
231.9017723144751
 20
-266.1568059669179
 10
230.8482851438126
 20
-267.1871996030463
 10
229.7647193678116
 20
-268.1862197174763
 10
228.651812998267
 20
-269.1531287365702
 10
227.5103040469737
 20
-270.0871890866906
 10
226.3409305257265
 20
-270.9876631941997
 10
225.1444304463205
 20
-271.8538134854598
 10
223.9215418205503
 20
-272.6849023868334
 10
222.6730026602111
 20
-273.4801923246829
 10
221.3995509770976
 20
-274.2389457253705
 10
220.1019247830047
 20
-274.9604250152587
 10
218.7808620897275
 20
-275.6438926207099
 10
217.4371009090606
 20
-276.2886109680865
 10
216.0713792527991
 20
-276.8938424837506
 10
214.6844351327379
 20
-277.4588495940649
 10
213.2770065606717
 20
-277.9828947253916
 10
211.8498315483957
 20
-278.4652403040931
 10
210.4036481077045
 20
-278.9051487565317
 10
208.9391942503931
 20
-279.3018825090699
 10
207.4572079882565
 20
-279.65470398807
 10
205.9584273330895
 20
-279.9628756198944
 10
204.443590296687
 20
-280.2256598309055
 10
202.9134348908439
 20
-280.4423190474656
 10
201.3686991273551
 20
-280.6121156959371
 10
199.8101210180155
 20
-280.7343122026824
 10
198.23843857462
 20
-280.8081709940637
 10
196.6543898089645
 20
-280.8329544964437
  0
LWPOLYLINE
  5
4F
100
AcDbEntity
  8
0
  6
ByLayer
 62
  256
370
   -1
100
AcDbPolyline
 90
  303
 70
    1
 43
0
 10
468.3043922589554
 20
-245.9333420832879
 10
467.5221107627328
 20
-244.0929336735551
 10
466.7012837043452
 20
-242.1747865177893
 10
465.8403205149
 20
-240.1818264382309
 10
464.9376306255051
 20
-238.1169792571206
 10
463.9916234672676
 20
-235.9831707966988
 10
463.0007084712951
 20
-233.7833268792061
 10
461.9632950686954
 20
-231.5203733268831
 10
460.8777926905756
 20
-229.1972359619702
 10
459.7426107680434
 20
-226.816840606708
 10
458.5561587322065
 20
-224.3821130833371
 10
457.3168460141721
 20
-221.8959792140979
 10
456.023082045048
 20
-219.3613648212311
 10
454.6732762559417
 20
-216.7811957269771
 10
453.2658380779603
 20
-214.1583977535765
 10
451.7991769422119
 20
-211.4958967232699
 10
450.2717022798037
 20
-208.7966184582976
 10
448.6818235218431
 20
-206.0634887809004
 10
447.0279500994379
 20
-203.2994335133187
 10
445.3084914436954
 20
-200.5073784777931
 10
443.5218569857234
 20
-197.6902494965641
 10
441.666456156629
 20
-194.8509723918722
 10
439.7406983875201
 20
-191.992472985958
 10
437.742993109504
 20
-189.1176771010619
 10
435.6717497536882
 20
-186.2295105594247
 10
433.5253777511805
 20
-183.3308991832867
 10
431.302286533088
 20
-180.4247687948885
 10
429.0008855305186
 20
-177.5140452164707
 10
426.6195841745796
 20
-174.6016542702738
 10
424.1567918963785
 20
-171.6905217785383
 10
421.610918127023
 20
-168.7835735635047
 10
418.9803722976203
 20
-165.8837354474136
 10
416.2635638392783
 20
-162.9939332525056
 10
413.4589021831042
 20
-160.1170928010211
 10
410.5647967602057
 20
-157.2561399152008
 10
407.5796570016903
 20
-154.414000417285
 10
404.5018923386655
 20
-151.5936001295145
 10
401.3299122022387
 20
-148.7978648741296
 10
398.0621260235176
 20
-146.029720473371
 10
394.6969432336095
 20
-143.2920927494792
 10
391.2327732636222
 20
-140.5879075246947
 10
387.668025544663
 20
-137.9200906212581
 10
384.0011095078395
 20
-135.2915678614098
 10
380.2304345842592
 20
-132.7052650673904
 10
376.3544102050296
 20
-130.1641080614405
 10
372.3714458012583
 20
-127.6710226658006
 10
368.2799508040528
 20
-125.2289347027113
 10
364.0783346445203
 20
-122.840769994413
 10
359.7650067537688
 20
-120.5094543631463
 10
355.3383765629056
 20
-118.2379136311517
 10
349.9059415671579
 20
-115.6095598529284
 10
343.442596327572
 20
-112.6958847489004
 10
336.838445893978
 20
-109.9392551348914
 10
330.102246064919
 20
-107.3390831448791
 10
323.2427526389379
 20
-104.8947809128409
 10
316.268721414578
 20
-102.6057605727546
 10
309.1889081903821
 20
-100.4714342585977
 10
302.0120687648932
 20
-98.49121410434766
 10
294.7469589366545
 20
-96.6645122439821
 10
287.4023345042089
 20
-94.99074081147869
 10
279.9869512660995
 20
-93.46931194081488
 10
272.5095650208693
 20
-92.09963776596831
 10
264.9789315670613
 20
-90.88113042091651
 10
257.4038067032186
 20
-89.81320203963708
 10
249.7929462278842
 20
-88.89526475610759
 10
242.1551059396011
 20
-88.1267307043056
 10
234.4990416369123
 20
-87.50701201820868
 10
226.833509118361
 20
-87.03552083179441
 10
219.1672641824899
 20
-86.71166927904036
 10
211.5090626278424
 20
-86.53486949392411
 10
203.8676602529613
 20
-86.50453361042321
 10
196.2518128563898
 20
-86.62007376251523
 10
188.6702762366707
 20
-86.88090208417775
 10
181.1318061923472
 20
-87.28643070938837
 10
173.6451585219622
 20
-87.83607177212463
 10
166.2190890240589
 20
-88.52923740636409
 10
158.8623534971802
 20
-89.36533974608433
 10
151.5837077398692
 20
-90.34379092526297
 10
144.3919075506689
 20
-91.46400307787749
 10
137.2957087281223
 20
-92.72538833790556
 10
130.3038670707724
 20
-94.12735883932467
 10
123.4251383771623
 20
-95.66932671611241
 10
116.6682784458351
 20
-97.3507041022464
 10
110.0420430753336
 20
-99.17090313170416
 10
103.5551880642011
 20
-101.1293359384633
 10
97.21646921098043
 20
-103.2254146565013
 10
91.03464231421471
 20
-105.4585514197959
 10
85.01846317244693
 20
-107.8281583623245
 10
79.17668758422015
 20
-110.3336476180648
 10
73.51807134807737
 20
-112.9744313209942
 10
68.05137026256163
 20
-115.7499216050905
 10
62.78534012621598
 20
-118.6595306043311
 10
57.72873673758341
 20
-121.7026704526937
 10
52.89031589520698
 20
-124.8787532841557
 10
48.27883339762971
 20
-128.1871912326948
 10
43.90304504339462
 20
-131.6273964322886
 10
39.77170663104475
 20
-135.1987810169146
 10
35.89357395912313
 20
-138.9007571205503
 10
32.27740282617278
 20
-142.7327368771734
 10
28.93194903073672
 20
-146.6941324207614
 10
25.86596837135792
 20
-150.7843558852921
 10
22.0458441531189
 20
-156.7434384677556
 10
18.83018491007156
 20
-162.8783940699597
 10
16.20142032446173
 20
-169.1764028678627
 10
14.14198007853525
 20
-175.6246450374233
 10
12.63429385453794
 20
-182.2103007546
 10
11.66079133471564
 20
-188.9205501953513
 10
11.20390220131417
 20
-195.7425735356358
 10
11.24605613657936
 20
-202.6635509514119
 10
11.76968282275704
 20
-209.6706626186383
 10
12.75721194209305
 20
-216.7510887132735
 10
14.1910731768332
 20
-223.8920094112761
 10
16.05369620922335
 20
-231.0806048886044
 10
18.32751072150929
 20
-238.3040553212171
 10
20.99494639593687
 20
-245.5495408850728
 10
24.03843291475194
 20
-252.8042417561299
 10
27.44039996020029
 20
-260.0553381103469
 10
31.18327721452778
 20
-267.2900101236826
 10
35.24949435998022
 20
-274.4954379720951
 10
39.62148107880344
 20
-281.6588018315434
 10
44.28166705324329
 20
-288.7672818779858
 10
49.2124819655456
 20
-295.808058287381
 10
54.39635549795615
 20
-302.7683112356871
 10
59.81571733272084
 20
-309.6352208988632
 10
65.45299715208547
 20
-316.3959674528675
 10
71.29062463829584
 20
-323.0377310736585
 10
77.31102947359781
 20
-329.5476919371949
 10
83.49664134023719
 20
-335.9130302194353
 10
89.82988992045986
 20
-342.1209260963381
 10
96.29320489651158
 20
-348.1585597438617
 10
102.8690159506382
 20
-354.0131113379649
 10
109.5397527650856
 20
-359.6717610546061
 10
116.2878450220996
 20
-365.1216890697439
 10
123.0957224039259
 20
-370.3500755593367
 10
129.9458145928106
 20
-375.3441006993433
 10
136.8205512709992
 20
-380.090944665722
 10
143.7023621207377
 20
-384.5777876344314
 10
150.573676824272
 20
-388.79180978143
 10
157.4169250638478
 20
-392.7201912826764
 10
164.214536521711
 20
-396.3501123141291
 10
170.9489408801074
 20
-399.6687530517467
 10
177.6025678212829
 20
-402.6632936714877
 10
184.1578470274832
 20
-405.3209143493107
 10
190.5972081809542
 20
-407.628795261174
 10
196.9030809639417
 20
-409.5741165830362
 10
203.0578950586916
 20
-411.1440584908561
 10
209.0440801474497
 20
-412.3258011605921
 10
214.8440659124618
 20
-413.1065247682026
 10
220.4402820359737
 20
-413.4734094896463
 10
225.8151582002313
 20
-413.4136355008817
 10
230.9511240874805
 20
-412.9143829778673
 10
235.4436842908994
 20
-412.058050302662
 10
239.3491535956141
 20
-410.9473950825345
 10
243.0817053348536
 20
-409.534598847396
 10
246.6479974240114
 20
-407.8328742727448
 10
250.0546877784809
 20
-405.8554340340792
 10
253.3084343136558
 20
-403.6154908068978
 10
256.4158949449293
 20
-401.1262572666986
 10
259.3837275876949
 20
-398.4009460889802
 10
262.218590157346
 20
-395.4527699492407
 10
264.9271405692761
 20
-392.2949415229788
 10
267.5160367388787
 20
-388.9406734856925
 10
269.9919365815472
 20
-385.4031785128803
 10
272.361498012675
 20
-381.6956692800407
 10
274.6313789476555
 20
-377.8313584626717
 10
276.8082373018824
 20
-373.8234587362719
 10
278.8987309907488
 20
-369.6851827763394
 10
280.9095179296484
 20
-365.4297432583728
 10
282.8472560339746
 20
-361.0703528578704
 10
284.7186032191207
 20
-356.6202242503304
 10
286.5302174004802
 20
-352.0925701112513
 10
288.2887564934466
 20
-347.5006031161313
 10
290.0008784134134
 20
-342.8575359404689
 10
291.6732410757739
 20
-338.1765812597623
 10
293.3125023959216
 20
-333.4709517495098
 10
294.92532028925
 20
-328.75386008521
 10
296.5183526711525
 20
-324.0385189423611
 10
298.0982574570225
 20
-319.3381409964614
 10
299.6716925622535
 20
-314.6659389230093
 10
301.245315902239
 20
-310.0351253975031
 10
302.8257853923723
 20
-305.4589130954411
 10
304.4197589480469
 20
-300.9505146923218
 10
306.0338944846564
 20
-296.5231428636434
 10
307.674849917594
 20
-292.1900102849044
 10
309.3492831622532
 20
-287.964329631603
 10
311.0638521340277
 20
-283.8593135792376
 10
312.8252147483105
 20
-279.8881748033064
 10
314.6400289204954
 20
-276.064125979308
 10
316.5149525659758
 20
-272.4003797827405
 10
318.456643600145
 20
-268.9101488891026
 10
320.4717599383964
 20
-265.6066459738922
 10
322.5669594961237
 20
-262.5030837126079
 10
324.7489001887202
 20
-259.612674780748
 10
327.0242399315793
 20
-256.9486318538108
 10
329.3996366400945
 20
-254.5241676072947
 10
331.8817482296593
 20
-252.352494716698
 10
334.4772326156669
 20
-250.4468258575191
 10
337.192747713511
 20
-248.8203737052563
 10
340.0349514385851
 20
-247.486350935408
 10
343.0105017062824
 20
-246.4579702234724
 10
346.1260564319964
 20
-245.748444244948
 10
349.3882735311207
 20
-245.3709856753331
 10
352.6283932081796
 20
-245.3360163722099
 10
355.8470792654122
 20
-245.6253516666226
 10
359.0438471502115
 20
-246.2255092891472
 10
362.2182123099705
 20
-247.1230069703603
 10
365.369690192082
 20
-248.3043624408379
 10
368.4977962439393
 20
-249.7560934311565
 10
371.6020459129355
 20
-251.4647176718924
 10
374.6819546464633
 20
-253.4167528936218
 10
377.7370378919161
 20
-255.5987168269212
 10
380.7668110966865
 20
-257.9971272023666
 10
383.7707897081678
 20
-260.5985017505345
 10
386.7484891737531
 20
-263.3893582020013
 10
389.6994249408352
 20
-266.3562142873431
 10
392.6231124568073
 20
-269.4855877371363
 10
395.5190671690623
 20
-272.7639962819572
 10
398.3868045249934
 20
-276.1779576523821
 10
401.2258399719934
 20
-279.7139895789873
 10
404.0356889574555
 20
-283.3586097923491
 10
406.8158669287726
 20
-287.0983360230438
 10
409.5658893333379
 20
-290.9196860016477
 10
412.2852716185442
 20
-294.8091774587372
 10
414.9735292317848
 20
-298.7533281248885
 10
417.6301776204525
 20
-302.7386557306779
 10
420.2547322319404
 20
-306.7516780066817
 10
422.8467085136416
 20
-310.7789126834763
 10
425.405621912949
 20
-314.8068774916379
 10
427.9309878772557
 20
-318.8220901617428
 10
430.4223218539547
 20
-322.8110684243675
 10
432.879139290439
 20
-326.7603300100881
 10
435.3009556341017
 20
-330.6563926494809
 10
437.6872863323358
 20
-334.4857740731223
 10
440.0376468325343
 20
-338.2349920115885
 10
442.3515525820902
 20
-341.890564195456
 10
444.6285190283966
 20
-345.4390083553009
 10
446.8680616188465
 20
-348.8668422216996
 10
449.069695800833
 20
-352.1605835252284
 10
451.232937021749
 20
-355.3067499964635
 10
453.3573007289875
 20
-358.2918593659814
 10
455.4423023699417
 20
-361.1024293643583
 10
457.4874573920047
 20
-363.7249777221705
 10
459.4922812425691
 20
-366.1460221699942
 10
461.4562893690282
 20
-368.352080438406
 10
463.3789972187751
 20
-370.3296702579819
 10
465.2599202392028
 20
-372.0653093592983
 10
467.0985738777041
 20
-373.5455154729316
 10
468.8944735816723
 20
-374.756806329458
 10
470.6471347985003
 20
-375.6856996594539
 10
472.3560729755811
 20
-376.3187131934955
 10
474.0208035603079
 20
-376.6423646621591
 10
475.6408420000735
 20
-376.6431717960211
 10
476.9510476648269
 20
-376.3890477695131
 10
477.9541423444575
 20
-376.0223853230356
 10
478.9154767811075
 20
-375.5141800300921
 10
479.8346989459387
 20
-374.8676475614683
 10
480.7114568101126
 20
-374.0860035879498
 10
481.5453983447907
 20
-373.1724637803226
 10
482.3361715211347
 20
-372.1302438093721
 10
483.0834243103061
 20
-370.9625593458842
 10
483.7868046834664
 20
-369.6726260606446
 10
484.4459606117771
 20
-368.2636596244389
 10
485.0605400664001
 20
-366.7388757080531
 10
485.6301910184966
 20
-365.1014899822724
 10
486.1545614392282
 20
-363.354718117883
 10
486.6332992997567
 20
-361.5017757856705
 10
487.0660525712434
 20
-359.5458786564204
 10
487.4524692248499
 20
-357.4902424009185
 10
487.792197231738
 20
-355.3380826899507
 10
488.0848845630689
 20
-353.0926151943026
 10
488.3301791900044
 20
-350.7570555847598
 10
488.527729083706
 20
-348.3346195321081
 10
488.6771822153353
 20
-345.8285227071333
 10
488.7781865560538
 20
-343.241980780621
 10
488.830390077023
 20
-340.578209423357
 10
488.8334407494045
 20
-337.8404243061269
 10
488.78698654436
 20
-335.0318410997165
 10
488.690675433051
 20
-332.1556754749115
 10
488.544155386639
 20
-329.2151431024976
 10
488.3470743762854
 20
-326.2134596532604
 10
488.099080373152
 20
-323.1538407979859
 10
487.7998213484003
 20
-320.0395022074595
 10
487.4489452731918
 20
-316.8736595524671
 10
487.0461001186882
 20
-313.6595285037943
 10
486.5909338560509
 20
-310.4003247322269
 10
486.0830944564415
 20
-307.0992639085507
 10
485.5222298910217
 20
-303.7595617035512
 10
484.9079881309527
 20
-300.3844337880142
 10
484.2400171473966
 20
-296.9770958327255
 10
483.5179649115145
 20
-293.5407635084707
 10
482.7414793944681
 20
-290.0786524860356
 10
481.910208567419
 20
-286.5939784362058
 10
481.0238004015288
 20
-283.0899570297671
 10
480.0819028679589
 20
-279.5698039375052
 10
479.084163937871
 20
-276.0367348302058
 10
478.0302315824266
 20
-272.4939653786546
 10
476.9197537727873
 20
-268.9447112536374
 10
475.7523784801146
 20
-265.3921881259398
 10
474.5277536755701
 20
-261.8396116663475
 10
473.2455273303153
 20
-258.2901975456464
 10
471.9053474155119
 20
-254.747161434622
 10
470.5068619023214
 20
-251.2137190040601
 10
469.0497187619055
 20
-247.6930859247472
  0
ENDSEC
  0
SECTION
  2
OBJECTS
  0
DICTIONARY
  5
C
330
0
100
AcDbDictionary
281
    1
  3
ACAD_GROUP
350
D
  0
DICTIONARY
  5
D
330
C
100
AcDbDictionary
281
    1
  0
PLOTSETTINGS
  5
50
100
AcDbPlotSettings
  6
1x1
 40
0
 41
0
 42
0
 43
0
  0
ENDSEC
  0
EOF
